<?xml version="1.0" encoding="utf-8"?>
<!-- Generator: Adobe Illustrator 24.2.2, SVG Export Plug-In . SVG Version: 6.00 Build 0)  -->
<svg version="1.1" id="Layer_1" xmlns="http://www.w3.org/2000/svg" xmlns:xlink="http://www.w3.org/1999/xlink" x="0px" y="0px"
	 viewBox="0 0 100 100" style="enable-background:new 0 0 100 100;" xml:space="preserve">
<style type="text/css">
	.st0{fill:#FFFFFF;}
</style>
<path class="st0" d="M99.5,50.2c0.1,13.1-5.1,25.7-14.5,34.9c-9.2,9.3-21.7,14.5-34.8,14.4H49C21.8,99.1,0.1,76.8,0.5,49.6
	c0-13.2,5.4-25.8,14.9-35C25,5.3,38,0.2,51.4,0.5C57.7,0.7,64,2.1,69.8,4.6c5.9,2.6,11.2,6.3,15.7,10.9
	C94.7,24.7,99.7,37.2,99.5,50.2z"/>
<path d="M55.7,56.6c0.9,9.3-0.6,18.3-1.8,27.9C51,71,50.3,60.3,52.2,56L55.7,56.6z M55.5,40.7c-1.1,0.6-2.1,1.3-3,2.1
	c-3,3-3.7,5.9-1.7,9.3c0.7,1.5,2.3,2.3,4,2c1.5-0.4,2.5-1.8,2.5-3.3c0.1-0.6,0-1.2-0.2-1.8C55.8,46.4,55.3,43.6,55.5,40.7z
	 M62.2,20.1c-1-2.7-2.3-5.3-3.9-7.7c-2.9-4.3-6.2-4.3-9.5-0.7c-0.5,0.5-1,1.1-1.4,1.8c-1.8,3.3-3.7,6.5-5.2,9.9
	c-4.5,10.8-7.3,22.2-9.9,33.7c-1.7,7.5-2.5,15.1-0.9,22.7c0.7,3.2,1.5,6.3,3.7,8.8c2.9,3.4,6.5,3,8.6-1.2c0.5-0.7,0.8-1.6,1-2.4
	c0.4-3.2,1.1-6.5,0.8-9.7c-0.5-4.7-1.3-9.4-2.3-14c-1.1-5.3-1.7-10.6-0.4-16c0.9-3.6,2.4-6.8,5.5-9.1c4.3-3.3,8.9-2.8,12.5,0.8
	c3.2,3.3,4.1,7.4,3.5,11.8c-0.4,2.2-0.9,4.4-1.6,6.5c-1,3.4-1.3,6.9-1.1,10.4c0.1,1.2,0.4,2.4,1,3.5c0.4,1,1.6,1.5,2.6,1.1
	c0.4-0.2,0.8-0.5,1-0.9c2.5-3.6,3-8.7,3-13v-0.8C69.3,43.5,66.2,31.4,62.2,20.1z"/>
</svg>
